<?xml version="1.0" encoding="UTF-8" standalone="no"?>
<!DOCTYPE svg PUBLIC "-//W3C//DTD SVG 1.1//EN" "http://www.w3.org/Graphics/SVG/1.1/DTD/svg11.dtd">
<svg width="100%" height="100%" viewBox="0 0 6498 2403" version="1.1" xmlns="http://www.w3.org/2000/svg" xmlns:xlink="http://www.w3.org/1999/xlink" xml:space="preserve" xmlns:serif="http://www.serif.com/" style="fill-rule:evenodd;clip-rule:evenodd;stroke-linejoin:round;stroke-miterlimit:2;">
    <g transform="matrix(1,0,0,1,-712.305,-401.881)">
        <g transform="matrix(4.16667,0,0,4.16667,0,0)">
            <g transform="matrix(1,0,0,1,205.888,638.019)">
                <path d="M0,-178.099L0,-102.065L19.865,-102.065C26.03,-102.065 30.937,-102.921 34.592,-104.633C38.242,-106.346 41.1,-108.797 43.155,-111.997C44.98,-115.192 46.237,-119.131 46.922,-123.813C47.607,-128.491 47.95,-133.917 47.95,-140.082C47.95,-146.247 47.607,-151.668 46.922,-156.35C46.237,-161.028 44.867,-165.084 42.813,-168.509C38.472,-174.899 30.252,-178.099 18.152,-178.099L0,-178.099ZM-34.935,32.88L-34.935,-210.979L21.235,-210.979C62.335,-210.979 82.885,-187.117 82.885,-139.397C82.885,-125.012 80.658,-112.794 76.206,-102.749C71.753,-92.7 63.93,-84.597 52.745,-78.432L90.419,32.88L53.43,32.88L20.893,-71.24L0,-71.24L0,32.88L-34.935,32.88Z" style="fill:white;fill-rule:nonzero;"/>
            </g>
        </g>
        <g transform="matrix(4.16667,0,0,4.16667,0,0)">
            <g transform="matrix(1,0,0,1,438.785,512.322)">
                <path d="M0,73.294L-17.125,-15.07L-17.81,-15.07L-34.935,73.294L0,73.294ZM-86.31,158.576L-31.853,-85.282L-2.74,-85.282L51.717,158.576L16.782,158.576L6.507,106.174L-41.1,106.174L-51.375,158.576L-86.31,158.576Z" style="fill:white;fill-rule:nonzero;"/>
            </g>
        </g>
        <g transform="matrix(4.16667,0,0,4.16667,0,0)">
            <g transform="matrix(1,0,0,1,0,17.938)">
                <rect x="560.028" y="409.102" width="34.935" height="243.858" style="fill:white;"/>
            </g>
        </g>
        <g transform="matrix(4.16667,0,0,4.16667,0,0)">
            <g transform="matrix(1,0,0,1,678.874,427.04)">
                <path d="M0,243.858L0,0L33.565,0L86.31,146.931L86.995,146.931L86.995,0L121.929,0L121.929,243.858L89.049,243.858L35.62,97.269L34.935,97.269L34.935,243.858L0,243.858Z" style="fill:white;fill-rule:nonzero;"/>
            </g>
        </g>
        <g transform="matrix(4.16667,0,0,4.16667,0,0)">
            <g transform="matrix(1,0,0,1,916.219,427.04)">
                <path d="M0,243.858L0,140.766L-47.95,0L-10.96,0L17.125,96.926L17.81,96.926L45.895,0L82.884,0L34.935,140.766L34.935,243.858L0,243.858Z" style="fill:white;fill-rule:nonzero;"/>
            </g>
        </g>
        <g transform="matrix(4.16667,0,0,4.16667,0,0)">
            <g transform="matrix(1,0,0,1,1102.88,638.019)">
                <path d="M0,-178.099L0,0L16.097,0C25.912,0 32.88,-2.452 36.989,-7.364C41.1,-12.271 43.154,-19.978 43.154,-30.483L43.154,-147.959C43.154,-157.549 41.212,-164.967 37.332,-170.222C33.446,-175.472 26.372,-178.099 16.097,-178.099L0,-178.099ZM-34.936,32.88L-34.936,-210.979L16.782,-210.979C36.872,-210.979 52.113,-205.499 62.506,-194.539C72.893,-183.579 78.089,-168.049 78.089,-147.959L78.089,-33.908C78.089,-11.073 72.551,5.768 61.479,16.611C50.4,27.459 34.475,32.88 13.699,32.88L-34.936,32.88Z" style="fill:white;fill-rule:nonzero;"/>
            </g>
        </g>
        <g transform="matrix(4.16667,0,0,4.16667,0,0)">
            <g transform="matrix(1,0,0,1,1331.66,512.322)">
                <path d="M0,73.294L-17.125,-15.07L-17.81,-15.07L-34.935,73.294L0,73.294ZM-86.31,158.576L-31.852,-85.282L-2.739,-85.282L51.718,158.576L16.782,158.576L6.508,106.174L-41.1,106.174L-51.374,158.576L-86.31,158.576Z" style="fill:white;fill-rule:nonzero;"/>
            </g>
        </g>
        <g transform="matrix(4.16667,0,0,4.16667,0,0)">
            <g transform="matrix(1,0,0,1,1465.58,427.04)">
                <path d="M0,243.858L0,140.766L-47.95,0L-10.96,0L17.125,96.926L17.81,96.926L45.895,0L82.884,0L34.935,140.766L34.935,243.858L0,243.858Z" style="fill:white;fill-rule:nonzero;"/>
            </g>
        </g>
        <g transform="matrix(4.16667,0,0,4.16667,0,0)">
            <g transform="matrix(1,0,0,1,1730.33,600.686)">
                <path d="M0,-103.434L-34.935,-103.434L-34.935,-111.311C-34.935,-119.301 -36.818,-126.21 -40.586,-132.033C-44.354,-137.855 -50.689,-140.766 -59.595,-140.766C-64.39,-140.766 -68.274,-139.851 -71.239,-138.026C-74.209,-136.196 -76.606,-133.916 -78.432,-131.176C-80.262,-128.206 -81.515,-124.84 -82.199,-121.073C-82.884,-117.305 -83.227,-113.366 -83.227,-109.256C-83.227,-104.461 -83.056,-100.464 -82.713,-97.269C-82.37,-94.069 -81.515,-91.216 -80.145,-88.706C-78.774,-86.191 -76.778,-84.024 -74.15,-82.199C-71.528,-80.369 -67.932,-78.544 -63.361,-76.719L-36.646,-66.101C-28.888,-63.132 -22.604,-59.648 -17.81,-55.656C-13.015,-51.658 -9.247,-47.035 -6.507,-41.785C-3.997,-36.304 -2.285,-30.08 -1.37,-23.119C-0.46,-16.151 0,-8.219 0,0.685C0,10.961 -1.027,20.497 -3.082,29.284C-5.137,38.077 -8.45,45.552 -13.015,51.717C-17.81,58.113 -24.092,63.137 -31.852,66.788C-39.617,70.437 -49.095,72.267 -60.279,72.267C-68.729,72.267 -76.606,70.78 -83.912,67.815C-91.222,64.85 -97.499,60.74 -102.749,55.485C-108.004,50.235 -112.168,44.129 -115.25,37.162C-118.333,30.199 -119.874,22.605 -119.874,14.385L-119.874,1.371L-84.939,1.371L-84.939,12.331C-84.939,18.725 -83.056,24.489 -79.288,29.627C-75.521,34.764 -69.185,37.333 -60.279,37.333C-54.345,37.333 -49.721,36.476 -46.408,34.764C-43.101,33.051 -40.532,30.6 -38.702,27.4C-36.877,24.206 -35.791,20.379 -35.448,15.926C-35.105,11.474 -34.935,6.507 -34.935,1.028C-34.935,-5.362 -35.165,-10.617 -35.619,-14.727C-36.08,-18.837 -36.989,-22.144 -38.359,-24.66C-39.96,-27.169 -42.073,-29.224 -44.695,-30.825C-47.323,-32.419 -50.807,-34.131 -55.142,-35.962L-80.145,-46.237C-95.214,-52.402 -105.317,-60.563 -110.455,-70.726C-115.593,-80.883 -118.161,-93.614 -118.161,-108.914C-118.161,-118.043 -116.909,-126.724 -114.394,-134.944C-111.884,-143.163 -108.116,-150.238 -103.092,-156.179C-98.297,-162.113 -92.19,-166.85 -84.768,-170.392C-77.351,-173.93 -68.499,-175.701 -58.225,-175.701C-49.55,-175.701 -41.613,-174.101 -34.421,-170.906C-27.229,-167.706 -21.01,-163.483 -15.755,-158.234C-5.255,-147.274 0,-134.714 0,-120.559L0,-103.434Z" style="fill:white;fill-rule:nonzero;"/>
            </g>
        </g>
        <g transform="matrix(4.16667,0,0,4.16667,0,0)">
            <g transform="matrix(1,0,0,1,421.176,153.618)">
                <path d="M0,241.134C24.964,237.871 63.06,229.753 65.5,227.729C225.947,95.806 46.689,300.267 222.912,156.026C298.099,94.491 271.213,120.441 330.283,170.999C351.161,188.906 373.753,141.736 352.268,104.026C351.642,102.938 396.447,49.319 397.085,48.889C396.542,44.792 414.499,137.411 413.564,73.271C413.557,72.815 426.507,28.2 434.719,27.669C452.494,26.531 427.22,10.622 457.755,-8.473C465.101,-13.051 475.243,-36.32 477.04,-40.873C477.343,-40.417 523.754,1.189 530.798,9.738C538.455,18.994 579.157,28.454 577.651,60.979C577.569,62.775 592.644,95.25 591.682,112.525C590.867,127.319 631.872,144.949 646.895,182.128C666.141,229.777 641.697,136.703 661.388,166.699C677.404,191.157 688.709,182.304 715.575,222.013C718.547,226.364 725.951,236.631 730.605,241.134L734.494,241.134C734.183,238.959 732.862,234.938 730.118,228.437C725.66,217.891 720.861,178.764 715.025,175.172C705.003,169.026 666.395,143.936 666.521,135.843C667.148,97.045 716.998,163.513 703.827,136.121C678.586,83.641 689.658,117.734 675.614,110.02C682.006,101.951 677.669,96.742 679.459,91.835C689.107,88.622 690.764,93.276 668.4,71.981C644.624,49.37 675.582,39 662.645,10.495C657.113,-1.669 677.378,-0.507 691.055,10.598C698.074,16.314 749.701,39.026 783.535,52.987C810.363,84.323 842.098,105.241 878.727,115.736C850.786,100.08 827.865,82.629 809.965,63.357C811.248,63.787 812.178,64.039 812.678,64.14C852.304,70.641 842.466,77.899 866.031,91.076C881.162,93.125 912.676,130.785 955.742,141.686C978.524,147.478 1002.05,188.349 1026.61,205.876C1073.15,239.035 1041.39,222.039 1092.28,236.885C1097.28,238.351 1101.53,239.768 1105.26,241.134L1123.12,241.134C1095.58,231.7 1078.36,208.102 1058.71,201.299C1019.99,187.945 1000.29,159.087 975.254,130.785C948.813,100.889 911.278,104.127 897.552,87.51C888.123,76.078 833.013,46.764 817.901,41.807C817.521,41.454 816.541,41.25 815.915,40.821C813.854,39.43 812.854,39.43 811.356,38.596C807.904,36.622 806.873,38.646 803.149,38.57C801.745,38.57 797.029,35.585 796.882,35.181C796.472,34.953 794.638,34.194 794.386,33.992C792.039,32.02 785.862,27.644 782.953,27.34C780.886,27.138 777.218,24.66 775.714,24.179C771.698,22.863 770.49,19.854 764.743,18.867C760.24,18.108 754.449,16.617 750.523,14.239C750.574,13.759 702.715,0.379 700.116,-0.303C699.642,-0.406 698.548,-0.86 697.137,-1.492C687.116,-12.748 670.859,-15.049 658.251,-22.131C652.44,-25.368 629.437,-13.101 621.318,-7.841C617.056,-5.058 614.773,-5.109 611.992,-2.757C610.285,-1.316 598.075,4.072 596.101,2.351C594.382,0.835 595.513,1.366 593.781,0.987C586.649,-0.582 588.192,3.49 584.739,3.97C578.594,4.805 581.206,5.716 578.081,6.803C572.909,8.65 576.109,9.94 570.678,9.839C566.504,3.566 554.699,1.82 549.166,-6.449C547.946,-8.296 537.602,-17.527 534.295,-17.604C530.121,-17.654 518.246,-29.895 511.582,-32.096C511.525,-32.121 503.761,-37.584 503.344,-37.938C503.287,-37.989 497.431,-40.568 495.876,-41.985C493.777,-43.907 486.234,-46.993 480.371,-48.587C477.805,-50.079 475.219,-51.342 472.778,-51.925C463.996,-54.075 463.079,-59.133 456.749,-56.351C443.996,-50.811 446.841,-53.164 433.17,-44.236C431.881,-44.413 424.748,-42.996 424.053,-42.314C420.398,-38.798 417.711,-34.675 413.639,-34.752C406.33,-34.878 408.657,-33.284 400.367,-28.959C393.361,-25.241 391.964,-22.535 384.3,-19.348C380.898,-17.907 372.856,-10.344 369.46,-10.699C367.418,-9.46 364.016,-12.267 360.013,-6.096C359.287,-4.983 354.771,-5.109 350.573,0.151C350.402,0.379 346.103,2.478 344.927,3.693C337.687,11.103 341.589,6.551 338.319,8.396C333.716,11.028 328.848,13.91 323.946,15.833C314.223,19.576 314.64,22.383 309.961,25.14C303.758,28.807 303.359,30.957 295.417,33.714C291.138,35.232 277.074,46.284 272.433,47.119C267.963,47.878 251.524,63.306 245.067,66.114C244.562,66.366 243.007,67.529 242.564,67.934C233.06,69.073 229.847,75.572 221.704,79.467C217.986,81.237 217.165,83.54 212.574,84.804C206.054,86.549 196.614,96.185 193.902,97.095C188.413,98.992 179.51,107.314 174.458,106.833C174.382,106.807 159.276,115.306 158.859,115.913C158.443,116.495 157.905,116.697 157.93,117.254C152.365,121.604 155.97,113.966 145.322,126.587C138.505,134.654 120.827,140.067 109.572,152.561C107.068,155.343 106.006,148.641 93.619,167.104C82.623,183.469 72.67,181.369 58.799,192.446C48.422,200.717 41.454,197.151 25.811,209.646C15.087,218.194 3.27,225.529 -8.561,231.826C-13.158,234.304 -16.889,239.616 -21.504,241.134L0,241.134Z" style="fill:white;"/>
            </g>
        </g>
    </g>
</svg>
