<?xml version="1.0" encoding="UTF-8" standalone="no"?>
<!DOCTYPE svg PUBLIC "-//W3C//DTD SVG 1.1//EN" "http://www.w3.org/Graphics/SVG/1.1/DTD/svg11.dtd">
<svg width="100%" height="100%" viewBox="0 0 6498 3498" version="1.1" xmlns="http://www.w3.org/2000/svg" xmlns:xlink="http://www.w3.org/1999/xlink" xml:space="preserve" xmlns:serif="http://www.serif.com/" style="fill-rule:evenodd;clip-rule:evenodd;stroke-linejoin:round;stroke-miterlimit:2;">
    <g transform="matrix(1,0,0,1,-712.305,-401.881)">
        <g transform="matrix(4.16667,0,0,4.16667,0,0)">
            <g transform="matrix(1,0,0,1,205.888,638.019)">
                <path d="M0,-178.099L0,-102.065L19.865,-102.065C26.03,-102.065 30.937,-102.921 34.592,-104.633C38.242,-106.346 41.1,-108.797 43.155,-111.997C44.98,-115.192 46.237,-119.131 46.922,-123.813C47.607,-128.491 47.95,-133.917 47.95,-140.082C47.95,-146.247 47.607,-151.668 46.922,-156.35C46.237,-161.028 44.867,-165.084 42.813,-168.509C38.472,-174.899 30.252,-178.099 18.152,-178.099L0,-178.099ZM-34.935,32.88L-34.935,-210.979L21.235,-210.979C62.335,-210.979 82.885,-187.117 82.885,-139.397C82.885,-125.012 80.658,-112.794 76.206,-102.749C71.753,-92.7 63.93,-84.597 52.745,-78.432L90.419,32.88L53.43,32.88L20.893,-71.24L0,-71.24L0,32.88L-34.935,32.88Z" style="fill:white;fill-rule:nonzero;"/>
            </g>
        </g>
        <g transform="matrix(4.16667,0,0,4.16667,0,0)">
            <g transform="matrix(1,0,0,1,438.785,512.322)">
                <path d="M0,73.294L-17.125,-15.07L-17.81,-15.07L-34.935,73.294L0,73.294ZM-86.31,158.576L-31.853,-85.282L-2.74,-85.282L51.717,158.576L16.782,158.576L6.507,106.174L-41.1,106.174L-51.375,158.576L-86.31,158.576Z" style="fill:white;fill-rule:nonzero;"/>
            </g>
        </g>
        <g transform="matrix(4.16667,0,0,4.16667,0,0)">
            <g transform="matrix(1,0,0,1,0,17.938)">
                <rect x="560.028" y="409.102" width="34.935" height="243.858" style="fill:white;"/>
            </g>
        </g>
        <g transform="matrix(4.16667,0,0,4.16667,0,0)">
            <g transform="matrix(1,0,0,1,678.874,427.04)">
                <path d="M0,243.858L0,0L33.565,0L86.31,146.931L86.995,146.931L86.995,0L121.929,0L121.929,243.858L89.049,243.858L35.62,97.269L34.935,97.269L34.935,243.858L0,243.858Z" style="fill:white;fill-rule:nonzero;"/>
            </g>
        </g>
        <g transform="matrix(4.16667,0,0,4.16667,0,0)">
            <g transform="matrix(1,0,0,1,916.219,427.04)">
                <path d="M0,243.858L0,140.766L-47.95,0L-10.96,0L17.125,96.926L17.81,96.926L45.895,0L82.884,0L34.935,140.766L34.935,243.858L0,243.858Z" style="fill:white;fill-rule:nonzero;"/>
            </g>
        </g>
        <g transform="matrix(4.16667,0,0,4.16667,0,0)">
            <g transform="matrix(1,0,0,1,1102.88,638.019)">
                <path d="M0,-178.099L0,0L16.097,0C25.912,0 32.88,-2.452 36.989,-7.364C41.1,-12.271 43.154,-19.978 43.154,-30.483L43.154,-147.959C43.154,-157.549 41.212,-164.967 37.332,-170.222C33.446,-175.472 26.372,-178.099 16.097,-178.099L0,-178.099ZM-34.936,32.88L-34.936,-210.979L16.782,-210.979C36.872,-210.979 52.113,-205.499 62.506,-194.539C72.893,-183.579 78.089,-168.049 78.089,-147.959L78.089,-33.908C78.089,-11.073 72.551,5.768 61.479,16.611C50.4,27.459 34.475,32.88 13.699,32.88L-34.936,32.88Z" style="fill:white;fill-rule:nonzero;"/>
            </g>
        </g>
        <g transform="matrix(4.16667,0,0,4.16667,0,0)">
            <g transform="matrix(1,0,0,1,1331.66,512.322)">
                <path d="M0,73.294L-17.125,-15.07L-17.81,-15.07L-34.935,73.294L0,73.294ZM-86.31,158.576L-31.852,-85.282L-2.739,-85.282L51.718,158.576L16.782,158.576L6.508,106.174L-41.1,106.174L-51.374,158.576L-86.31,158.576Z" style="fill:white;fill-rule:nonzero;"/>
            </g>
        </g>
        <g transform="matrix(4.16667,0,0,4.16667,0,0)">
            <g transform="matrix(1,0,0,1,1465.58,427.04)">
                <path d="M0,243.858L0,140.766L-47.95,0L-10.96,0L17.125,96.926L17.81,96.926L45.895,0L82.884,0L34.935,140.766L34.935,243.858L0,243.858Z" style="fill:white;fill-rule:nonzero;"/>
            </g>
        </g>
        <g transform="matrix(4.16667,0,0,4.16667,0,0)">
            <g transform="matrix(1,0,0,1,1730.33,600.686)">
                <path d="M0,-103.434L-34.935,-103.434L-34.935,-111.311C-34.935,-119.301 -36.818,-126.21 -40.586,-132.033C-44.354,-137.855 -50.689,-140.766 -59.595,-140.766C-64.39,-140.766 -68.274,-139.851 -71.239,-138.026C-74.209,-136.196 -76.606,-133.916 -78.432,-131.176C-80.262,-128.206 -81.515,-124.84 -82.199,-121.073C-82.884,-117.305 -83.227,-113.366 -83.227,-109.256C-83.227,-104.461 -83.056,-100.464 -82.713,-97.269C-82.37,-94.069 -81.515,-91.216 -80.145,-88.706C-78.774,-86.191 -76.778,-84.024 -74.15,-82.199C-71.528,-80.369 -67.932,-78.544 -63.361,-76.719L-36.646,-66.101C-28.888,-63.132 -22.604,-59.648 -17.81,-55.656C-13.015,-51.658 -9.247,-47.035 -6.507,-41.785C-3.997,-36.304 -2.285,-30.08 -1.37,-23.119C-0.46,-16.151 0,-8.219 0,0.685C0,10.961 -1.027,20.497 -3.082,29.284C-5.137,38.077 -8.45,45.552 -13.015,51.717C-17.81,58.113 -24.092,63.137 -31.852,66.788C-39.617,70.437 -49.095,72.267 -60.279,72.267C-68.729,72.267 -76.606,70.78 -83.912,67.815C-91.222,64.85 -97.499,60.74 -102.749,55.485C-108.004,50.235 -112.168,44.129 -115.25,37.162C-118.333,30.199 -119.874,22.605 -119.874,14.385L-119.874,1.371L-84.939,1.371L-84.939,12.331C-84.939,18.725 -83.056,24.489 -79.288,29.627C-75.521,34.764 -69.185,37.333 -60.279,37.333C-54.345,37.333 -49.721,36.476 -46.408,34.764C-43.101,33.051 -40.532,30.6 -38.702,27.4C-36.877,24.206 -35.791,20.379 -35.448,15.926C-35.105,11.474 -34.935,6.507 -34.935,1.028C-34.935,-5.362 -35.165,-10.617 -35.619,-14.727C-36.08,-18.837 -36.989,-22.144 -38.359,-24.66C-39.96,-27.169 -42.073,-29.224 -44.695,-30.825C-47.323,-32.419 -50.807,-34.131 -55.142,-35.962L-80.145,-46.237C-95.214,-52.402 -105.317,-60.563 -110.455,-70.726C-115.593,-80.883 -118.161,-93.614 -118.161,-108.914C-118.161,-118.043 -116.909,-126.724 -114.394,-134.944C-111.884,-143.163 -108.116,-150.238 -103.092,-156.179C-98.297,-162.113 -92.19,-166.85 -84.768,-170.392C-77.351,-173.93 -68.499,-175.701 -58.225,-175.701C-49.55,-175.701 -41.613,-174.101 -34.421,-170.906C-27.229,-167.706 -21.01,-163.483 -15.755,-158.234C-5.255,-147.274 0,-134.714 0,-120.559L0,-103.434Z" style="fill:white;fill-rule:nonzero;"/>
            </g>
        </g>
        <g transform="matrix(4.16667,0,0,4.16667,0,0)">
            <g transform="matrix(1,0,0,1,445.22,881.173)">
                <path d="M0,-4.715L15.618,-4.715C19.534,-4.78 22.479,-6.033 24.454,-8.473C26.333,-10.845 27.272,-13.482 27.272,-16.382C27.272,-18.788 26.89,-20.815 26.125,-22.463C25.329,-23.946 24.215,-25.116 22.782,-25.974C20.617,-27.39 18.101,-28.066 15.236,-28L0,-28L0,-4.715ZM-10.522,-38.232L14.67,-38.232C17.405,-38.232 20.045,-37.969 22.59,-37.444C25.134,-36.755 27.711,-35.345 30.319,-33.213C32.509,-31.606 34.286,-29.309 35.651,-26.324C37.08,-23.437 37.794,-20.026 37.794,-16.089C37.794,-10.775 35.98,-5.937 32.354,-1.573C28.631,3.019 23.191,5.382 16.033,5.512L0,5.512L0,33.517L-10.522,33.517L-10.522,-38.232Z" style="fill:white;fill-rule:nonzero;"/>
            </g>
        </g>
        <g transform="matrix(4.16667,0,0,4.16667,0,0)">
            <g transform="matrix(1,0,0,1,493.554,915.281)">
                <path d="M0,-51.672L9.931,-51.672L9.931,-21.22C9.931,-17.771 10.869,-15.076 12.745,-13.139C14.588,-11.2 16.94,-10.232 19.801,-10.232C22.662,-10.232 24.998,-11.2 26.81,-13.139C28.654,-15.076 29.576,-17.771 29.576,-21.22L29.576,-51.672L39.507,-51.672L39.507,-0.591L29.575,-0.591L29.575,-6.053L29.385,-6.053C26.114,-2.018 21.844,0 16.574,0C12.478,-0.067 8.779,-1.606 5.477,-4.617C1.889,-7.565 0.063,-11.919 0,-17.683L0,-51.672Z" style="fill:white;fill-rule:nonzero;"/>
            </g>
        </g>
        <g transform="matrix(4.16667,0,0,4.16667,0,0)">
            <g transform="matrix(1,0,0,1,549.128,879.161)">
                <path d="M0,19.929C4.046,24.296 9.272,26.48 15.677,26.48C18.544,26.48 20.886,25.906 22.703,24.757C24.519,23.609 25.427,22.001 25.427,19.934C25.427,18.097 24.885,16.818 23.803,16.095C22.688,15.34 21.208,14.93 19.361,14.865L10.574,14.076C6.403,13.683 3.012,12.24 0.401,9.746C-2.273,7.318 -3.643,3.922 -3.706,-0.442C-3.643,-5.691 -1.846,-9.628 1.684,-12.254C5.119,-14.879 9.476,-16.191 14.755,-16.191C17.045,-16.191 19.095,-16.044 20.909,-15.748C22.721,-15.421 24.422,-14.962 26.013,-14.371C29.065,-13.092 31.8,-11.371 34.218,-9.207L28.056,-1.781C26.144,-3.205 24.122,-4.381 21.989,-5.308C19.887,-6.135 17.467,-6.55 14.728,-6.55C11.607,-6.55 9.425,-5.975 8.184,-4.826C6.878,-3.675 6.225,-2.197 6.225,-0.391C6.159,0.759 6.653,1.761 7.706,2.615C8.661,3.568 10.348,4.175 12.768,4.438L20.982,5.078C26.14,5.473 29.866,7.082 32.159,9.907C34.292,12.666 35.358,16.165 35.358,20.402C35.294,25.363 33.339,29.189 29.494,31.883C25.678,34.642 20.798,36.054 14.855,36.12C6.78,36.12 -0.483,33.071 -6.936,26.972L0,19.929Z" style="fill:white;fill-rule:nonzero;"/>
            </g>
        </g>
        <g transform="matrix(4.16667,0,0,4.16667,0,0)">
            <g transform="matrix(1,0,0,1,596.06,914.69)">
                <path d="M0,-71.749L9.932,-71.749L9.932,-45.668L10.122,-45.668C13.392,-49.703 17.678,-51.721 22.98,-51.721C27.076,-51.721 30.823,-50.228 34.221,-47.242C37.585,-44.224 39.348,-39.795 39.507,-33.955L39.507,0L29.576,0L29.576,-30.451C29.576,-34.031 28.654,-36.758 26.81,-38.631C24.998,-40.536 22.662,-41.489 19.801,-41.489C16.94,-41.489 14.588,-40.536 12.745,-38.631C10.869,-36.758 9.931,-34.031 9.931,-30.451L9.931,0L0,0L0,-71.749Z" style="fill:white;fill-rule:nonzero;"/>
            </g>
        </g>
        <g transform="matrix(4.16667,0,0,4.16667,0,0)">
            <g transform="matrix(1,0,0,1,0,677.631)">
                <path d="M650.487,185.978L660.418,185.978L660.418,237.059L650.487,237.059L650.487,185.978ZM650.487,165.31L660.418,165.31L660.418,175.541L650.487,175.541L650.487,165.31Z" style="fill:white;fill-rule:nonzero;"/>
            </g>
        </g>
        <g transform="matrix(4.16667,0,0,4.16667,0,0)">
            <g transform="matrix(1,0,0,1,674.354,914.05)">
                <path d="M0,-50.441L9.932,-50.441L9.932,-45.028L10.122,-45.028C13.392,-49.063 17.678,-51.081 22.98,-51.081C27.076,-51.081 30.823,-49.587 34.221,-46.602C37.585,-43.584 39.348,-39.155 39.507,-33.315L39.507,0.64L29.576,0.64L29.576,-29.811C29.576,-33.391 28.654,-36.118 26.81,-37.991C24.998,-39.896 22.662,-40.849 19.801,-40.849C16.94,-40.849 14.588,-39.896 12.745,-37.991C10.869,-36.118 9.931,-33.391 9.931,-29.811L9.931,0.64L0,0.64L0,-50.441Z" style="fill:white;fill-rule:nonzero;"/>
            </g>
        </g>
        <g transform="matrix(4.16667,0,0,4.16667,0,0)">
            <g transform="matrix(1,0,0,1,736.645,909.72)">
                <path d="M0,-20.521C0,-16.603 0.127,-13.904 0.381,-12.422C0.604,-10.875 1.128,-9.591 1.955,-8.571C2.622,-7.649 3.639,-6.81 5.006,-6.053C6.309,-5.131 7.931,-4.67 9.87,-4.67C11.809,-4.67 13.43,-5.131 14.733,-6.053C16.036,-6.81 17.021,-7.649 17.69,-8.571C18.516,-9.591 19.072,-10.875 19.358,-12.422C19.549,-13.904 19.645,-16.603 19.645,-20.521C19.645,-24.503 19.549,-27.269 19.358,-28.816C19.072,-30.363 18.516,-31.614 17.69,-32.569C17.021,-33.49 16.036,-34.396 14.733,-35.285C13.43,-36.042 11.809,-36.453 9.87,-36.519C7.931,-36.453 6.309,-36.042 5.006,-35.285C3.639,-34.396 2.622,-33.49 1.955,-32.569C1.128,-31.614 0.604,-30.363 0.381,-28.816C0.127,-27.269 0,-24.503 0,-20.521M19.645,-0.362C16.374,3.457 12.119,5.43 6.88,5.561C3.674,5.495 1.007,4.79 -1.12,3.443C-3.343,2.163 -5.042,0.785 -6.217,-0.694C-7.519,-2.368 -8.455,-4.419 -9.026,-6.849C-9.63,-9.246 -9.931,-13.809 -9.931,-20.54C-9.931,-27.401 -9.63,-32.046 -9.026,-34.476C-8.455,-36.873 -7.519,-38.892 -6.217,-40.534C-5.042,-42.132 -3.343,-43.568 -1.12,-44.841C1.007,-46.048 3.674,-46.685 6.88,-46.75C11.801,-46.75 16.057,-44.733 19.645,-40.698L19.645,-46.111L29.576,-46.111L29.576,3.74C29.448,11.416 27.307,17.059 23.15,20.668C18.961,24.375 13.947,26.229 8.107,26.229C1.412,26.098 -4.3,23.25 -9.028,17.683L-1.312,11.348C-0.042,12.568 1.418,13.607 3.07,14.464C4.752,15.42 6.498,15.932 8.308,15.998C11.706,15.998 14.437,15.025 16.501,13.082C18.533,11.104 19.581,8.369 19.645,4.875L19.645,-0.362Z" style="fill:white;fill-rule:nonzero;"/>
            </g>
        </g>
        <g transform="matrix(4.16667,0,0,4.16667,0,0)">
            <g transform="matrix(1,0,0,1,805.549,914.691)">
                <path d="M0,-66.631L9.932,-66.631L9.932,-51.081L17.178,-51.081L17.178,-43.212L9.932,-43.212L9.932,-13.431C9.865,-10.838 11.042,-9.574 13.459,-9.641L17.178,-9.641L17.178,0L11.992,0C8.501,0 5.646,-1.114 3.427,-3.343C1.142,-5.474 0,-8.554 0,-12.585L0,-43.212L-4.986,-43.212L-4.986,-51.081L0,-51.081L0,-66.631Z" style="fill:white;fill-rule:nonzero;"/>
            </g>
        </g>
        <g transform="matrix(4.16667,0,0,4.16667,0,0)">
            <g transform="matrix(1,0,0,1,832.96,914.69)">
                <path d="M0,-71.749L9.932,-71.749L9.932,-45.668L10.122,-45.668C13.392,-49.703 17.678,-51.721 22.98,-51.721C27.076,-51.721 30.823,-50.228 34.221,-47.242C37.585,-44.224 39.348,-39.795 39.507,-33.955L39.507,0L29.576,0L29.576,-30.451C29.576,-34.031 28.654,-36.758 26.81,-38.631C24.998,-40.536 22.662,-41.489 19.801,-41.489C16.94,-41.489 14.588,-40.536 12.745,-38.631C10.869,-36.758 9.931,-34.031 9.931,-30.451L9.931,0L0,0L0,-71.749Z" style="fill:white;fill-rule:nonzero;"/>
            </g>
        </g>
        <g transform="matrix(4.16667,0,0,4.16667,0,0)">
            <g transform="matrix(1,0,0,1,915.486,893.739)">
                <path d="M0,-9.161C-0.127,-13.15 -1.163,-16.167 -3.105,-18.211C-5.017,-20.156 -7.468,-21.129 -10.462,-21.129C-13.456,-21.129 -15.908,-20.156 -17.819,-18.211C-19.698,-16.167 -20.733,-13.15 -20.924,-9.161L0,-9.161ZM-20.924,-0.706C-20.924,3.399 -19.78,6.517 -17.49,8.651C-15.36,10.818 -12.562,11.901 -9.096,11.901C-5.057,11.901 -1.449,10.243 1.731,6.927L8.933,13.278C3.882,18.853 -2.058,21.608 -8.888,21.542C-11.493,21.542 -14.035,21.149 -16.512,20.36C-17.752,19.935 -18.958,19.36 -20.133,18.639C-21.373,18.016 -22.532,17.244 -23.612,16.325C-25.708,14.423 -27.408,11.766 -28.71,8.354C-30.141,5.073 -30.855,0.808 -30.855,-4.441C-30.855,-9.493 -30.236,-13.693 -28.997,-17.039C-27.759,-20.451 -26.17,-23.141 -24.232,-25.11C-22.263,-27.11 -20.056,-28.555 -17.609,-29.44C-15.195,-30.326 -12.813,-30.769 -10.462,-30.769C-4.808,-30.703 -0.028,-28.784 3.88,-25.01C7.851,-21.171 9.868,-15.888 9.931,-9.161L9.931,-0.706L-20.924,-0.706Z" style="fill:white;fill-rule:nonzero;"/>
            </g>
        </g>
        <g transform="matrix(4.16667,0,0,4.16667,0,0)">
            <g transform="matrix(1,0,0,1,1009.41,862.986)">
                <path d="M0,31.659C-1.527,38.308 -4.436,43.418 -8.727,46.988C-13.146,50.526 -18.375,52.295 -24.414,52.295C-29.879,52.163 -34.438,50.786 -38.09,48.161C-41.807,45.635 -44.506,42.716 -46.189,39.401C-46.697,38.318 -47.158,37.285 -47.57,36.301C-47.951,35.284 -48.271,34.005 -48.524,32.463C-49.001,29.576 -49.238,24.031 -49.238,15.829C-49.238,7.497 -49,1.92 -48.523,-0.903C-48.016,-3.724 -47.236,-6.003 -46.188,-7.742C-44.504,-11.056 -41.803,-14.008 -38.084,-16.601C-34.432,-19.225 -29.871,-20.57 -24.404,-20.636C-17.699,-20.57 -12.234,-18.523 -8.008,-14.493C-3.781,-10.432 -1.113,-5.404 0,0.591L-11.172,0.591C-12.031,-2.302 -13.59,-4.768 -15.85,-6.806C-18.205,-8.745 -21.068,-9.748 -24.443,-9.814C-26.926,-9.748 -29.057,-9.238 -30.84,-8.285C-32.654,-7.299 -34.119,-6.067 -35.232,-4.587C-36.6,-3.041 -37.508,-1.052 -37.953,1.381C-38.463,3.945 -38.717,8.762 -38.717,15.829C-38.717,22.898 -38.463,27.681 -37.953,30.18C-37.508,32.679 -36.6,34.7 -35.23,36.246C-34.115,37.725 -32.652,38.926 -30.836,39.846C-29.053,40.93 -26.92,41.472 -24.436,41.472C-18.514,41.472 -14.088,38.202 -11.158,31.659L0,31.659Z" style="fill:white;fill-rule:nonzero;"/>
            </g>
        </g>
        <g transform="matrix(4.16667,0,0,4.16667,0,0)">
            <g transform="matrix(1,0,0,1,1046.09,889.052)">
                <path d="M0,0.147C0,-3.506 -0.159,-6.172 -0.478,-7.852C-0.797,-9.465 -1.449,-10.88 -2.437,-12.099C-3.169,-13.25 -4.251,-14.156 -5.685,-14.815C-7.055,-15.505 -8.647,-15.851 -10.462,-15.851C-12.15,-15.851 -13.711,-15.505 -15.144,-14.814C-16.514,-14.156 -17.627,-13.25 -18.487,-12.099C-19.348,-10.88 -19.969,-9.464 -20.35,-7.852C-20.733,-6.172 -20.924,-3.54 -20.924,0.048C-20.924,3.604 -20.733,6.205 -20.35,7.85C-19.969,9.53 -19.348,11.01 -18.487,12.294C-17.627,13.282 -16.514,14.155 -15.144,14.911C-13.711,15.635 -12.15,15.998 -10.462,15.998C-8.647,15.998 -7.055,15.635 -5.685,14.911C-4.251,14.155 -3.169,13.282 -2.437,12.294C-1.449,11.01 -0.797,9.53 -0.478,7.85C-0.159,6.205 0,3.636 0,0.147M-30.855,0.048C-30.855,-5.341 -30.426,-9.482 -29.567,-12.374C-28.679,-15.201 -27.312,-17.583 -25.469,-19.523C-24.103,-21.219 -22.195,-22.738 -19.749,-24.076C-17.334,-25.348 -14.235,-26.017 -10.453,-26.082C-6.545,-26.016 -3.383,-25.344 -0.967,-24.065C1.416,-22.719 3.259,-21.194 4.562,-19.488C6.525,-17.552 7.919,-15.173 8.743,-12.352C9.535,-9.465 9.932,-5.332 9.932,0.048C9.932,5.429 9.534,9.53 8.74,12.351C7.914,15.173 6.517,17.617 4.548,19.684C3.911,20.439 3.134,21.177 2.212,21.898C1.387,22.718 0.322,23.423 -0.98,24.014C-3.395,25.425 -6.555,26.163 -10.462,26.229C-14.242,26.163 -17.339,25.425 -19.753,24.014C-22.199,22.735 -24.105,21.292 -25.471,19.684C-27.313,17.617 -28.68,15.173 -29.568,12.351C-30.427,9.53 -30.855,5.429 -30.855,0.048" style="fill:white;fill-rule:nonzero;"/>
            </g>
        </g>
        <g transform="matrix(4.16667,0,0,4.16667,0,0)">
            <g transform="matrix(1,0,0,1,1067.69,913.985)">
                <path d="M0,-50.376L9.95,-50.376L9.95,-44.963L10.141,-44.963C13.521,-48.998 17.966,-51.016 23.479,-51.016C27.021,-50.949 29.876,-50.343 32.042,-49.194C34.174,-47.915 36.126,-46.291 37.898,-44.322C41.901,-48.85 47.266,-51.081 53.992,-51.016C58.225,-51.016 62.096,-49.522 65.606,-46.537C69.085,-43.519 70.89,-39.09 71.021,-33.25L71.021,0.705L61.08,0.705L61.08,-29.746C61.08,-33.326 60.128,-36.053 58.226,-37.926C56.323,-39.831 53.869,-40.784 50.866,-40.784C47.861,-40.784 45.392,-39.831 43.455,-37.926C41.485,-36.053 40.501,-33.326 40.501,-29.746L40.501,0.705L30.569,0.705L30.569,-29.746C30.569,-33.326 29.617,-36.053 27.715,-37.926C25.779,-39.831 23.31,-40.784 20.306,-40.784C17.301,-40.784 14.848,-39.831 12.945,-37.926C10.942,-36.053 9.941,-33.326 9.941,-29.746L9.941,0.705L0,0.705L0,-50.376Z" style="fill:white;fill-rule:nonzero;"/>
            </g>
        </g>
        <g transform="matrix(4.16667,0,0,4.16667,0,0)">
            <g transform="matrix(1,0,0,1,1155.54,886.153)">
                <path d="M0,-14.675L-5.018,-14.675L-5.018,-22.544L0,-22.544L0,-29.285C0,-34.141 1.302,-37.717 3.905,-40.014C6.446,-42.146 9.638,-43.212 13.481,-43.212L19.912,-43.212L19.912,-33.571L14.229,-33.571C11.231,-33.67 9.8,-32.252 9.931,-29.319L9.931,-22.544L19.912,-22.544L19.912,-14.675L9.931,-14.675L9.931,28.537L0,28.537L0,-14.675Z" style="fill:white;fill-rule:nonzero;"/>
            </g>
        </g>
        <g transform="matrix(4.16667,0,0,4.16667,0,0)">
            <g transform="matrix(1,0,0,1,1210.36,889.052)">
                <path d="M0,0.147C0,-3.506 -0.159,-6.172 -0.478,-7.852C-0.797,-9.465 -1.449,-10.88 -2.437,-12.099C-3.169,-13.25 -4.251,-14.156 -5.685,-14.815C-7.055,-15.505 -8.647,-15.851 -10.462,-15.851C-12.15,-15.851 -13.711,-15.505 -15.144,-14.814C-16.514,-14.156 -17.627,-13.25 -18.487,-12.099C-19.348,-10.88 -19.969,-9.464 -20.35,-7.852C-20.733,-6.172 -20.924,-3.54 -20.924,0.048C-20.924,3.604 -20.733,6.205 -20.35,7.85C-19.969,9.53 -19.348,11.01 -18.487,12.294C-17.627,13.282 -16.514,14.155 -15.144,14.911C-13.711,15.635 -12.15,15.998 -10.462,15.998C-8.647,15.998 -7.055,15.635 -5.685,14.911C-4.251,14.155 -3.169,13.282 -2.437,12.294C-1.449,11.01 -0.797,9.53 -0.478,7.85C-0.159,6.205 0,3.636 0,0.147M-30.855,0.048C-30.855,-5.341 -30.426,-9.482 -29.567,-12.374C-28.679,-15.201 -27.312,-17.583 -25.469,-19.523C-24.103,-21.219 -22.195,-22.738 -19.749,-24.076C-17.334,-25.348 -14.235,-26.017 -10.453,-26.082C-6.545,-26.016 -3.383,-25.344 -0.967,-24.065C1.416,-22.719 3.259,-21.194 4.562,-19.488C6.525,-17.552 7.919,-15.173 8.743,-12.352C9.535,-9.465 9.932,-5.332 9.932,0.048C9.932,5.429 9.534,9.53 8.74,12.351C7.914,15.173 6.517,17.617 4.548,19.684C3.911,20.439 3.134,21.177 2.212,21.898C1.387,22.718 0.322,23.423 -0.98,24.014C-3.395,25.425 -6.555,26.163 -10.462,26.229C-14.242,26.163 -17.339,25.425 -19.753,24.014C-22.199,22.735 -24.105,21.292 -25.471,19.684C-27.313,17.617 -28.68,15.173 -29.568,12.351C-30.427,9.53 -30.855,5.429 -30.855,0.048" style="fill:white;fill-rule:nonzero;"/>
            </g>
        </g>
        <g transform="matrix(4.16667,0,0,4.16667,0,0)">
            <g transform="matrix(1,0,0,1,1232.35,914.05)">
                <path d="M0,-50.441L9.932,-50.441L9.932,-45.028L10.139,-45.028C13.413,-49.063 17.704,-51.081 23.014,-51.081C26.987,-51.014 30.452,-49.707 33.408,-47.158L26.155,-38.283C24.056,-39.994 21.877,-40.849 19.618,-40.849C17.073,-40.849 14.894,-39.995 13.081,-38.287C11.045,-36.611 9.994,-33.901 9.932,-30.157L9.932,0.64L0,0.64L0,-50.441Z" style="fill:white;fill-rule:nonzero;"/>
            </g>
        </g>
        <g transform="matrix(4.16667,0,0,4.16667,0,0)">
            <g transform="matrix(1,0,0,1,1272.16,914.691)">
                <path d="M0,-66.631L9.931,-66.631L9.931,-51.081L17.178,-51.081L17.178,-43.212L9.931,-43.212L9.931,-13.431C9.865,-10.838 11.041,-9.574 13.459,-9.641L17.178,-9.641L17.178,0L11.991,0C8.501,0 5.646,-1.114 3.426,-3.343C1.142,-5.474 0,-8.554 0,-12.585L0,-43.212L-4.986,-43.212L-4.986,-51.081L0,-51.081L0,-66.631Z" style="fill:white;fill-rule:nonzero;"/>
            </g>
        </g>
        <g transform="matrix(4.16667,0,0,4.16667,0,0)">
            <g transform="matrix(1,0,0,1,1320.39,851.949)">
                <path d="M0,53.735L31.509,0.633L0.261,0.633L0.261,-9.007L44.379,-9.007L44.379,-0.831L11.753,52.51L44.379,52.51L44.379,62.742L0,62.742L0,53.735Z" style="fill:white;fill-rule:nonzero;"/>
            </g>
        </g>
        <g transform="matrix(4.16667,0,0,4.16667,0,0)">
            <g transform="matrix(1,0,0,1,1404.44,889.052)">
                <path d="M0,0.147C0,-3.506 -0.159,-6.172 -0.478,-7.852C-0.797,-9.465 -1.449,-10.88 -2.437,-12.099C-3.169,-13.25 -4.251,-14.156 -5.685,-14.815C-7.055,-15.505 -8.647,-15.851 -10.462,-15.851C-12.15,-15.851 -13.711,-15.505 -15.144,-14.814C-16.514,-14.156 -17.627,-13.25 -18.487,-12.099C-19.348,-10.88 -19.969,-9.464 -20.35,-7.852C-20.733,-6.172 -20.924,-3.54 -20.924,0.048C-20.924,3.604 -20.733,6.205 -20.35,7.85C-19.969,9.53 -19.348,11.01 -18.487,12.294C-17.627,13.282 -16.514,14.155 -15.144,14.911C-13.711,15.635 -12.15,15.998 -10.462,15.998C-8.647,15.998 -7.055,15.635 -5.685,14.911C-4.251,14.155 -3.169,13.282 -2.437,12.294C-1.449,11.01 -0.797,9.53 -0.478,7.85C-0.159,6.205 0,3.636 0,0.147M-30.855,0.048C-30.855,-5.341 -30.426,-9.482 -29.567,-12.374C-28.679,-15.201 -27.312,-17.583 -25.469,-19.523C-24.103,-21.219 -22.195,-22.738 -19.749,-24.076C-17.334,-25.348 -14.235,-26.017 -10.453,-26.082C-6.545,-26.016 -3.383,-25.344 -0.967,-24.065C1.416,-22.719 3.259,-21.194 4.562,-19.488C6.525,-17.552 7.919,-15.173 8.743,-12.352C9.535,-9.465 9.932,-5.332 9.932,0.048C9.932,5.429 9.534,9.53 8.74,12.351C7.914,15.173 6.517,17.617 4.548,19.684C3.911,20.439 3.134,21.177 2.212,21.898C1.387,22.718 0.322,23.423 -0.98,24.014C-3.395,25.425 -6.555,26.163 -10.462,26.229C-14.242,26.163 -17.339,25.425 -19.753,24.014C-22.199,22.735 -24.105,21.292 -25.471,19.684C-27.313,17.617 -28.68,15.173 -29.568,12.351C-30.427,9.53 -30.855,5.429 -30.855,0.048" style="fill:white;fill-rule:nonzero;"/>
            </g>
        </g>
        <g transform="matrix(4.16667,0,0,4.16667,0,0)">
            <g transform="matrix(1,0,0,1,1426.44,914.05)">
                <path d="M0,-50.441L9.933,-50.441L9.933,-45.028L10.122,-45.028C13.393,-49.063 17.678,-51.081 22.98,-51.081C27.076,-51.081 30.823,-49.587 34.221,-46.602C37.585,-43.584 39.348,-39.155 39.507,-33.315L39.507,0.64L29.575,0.64L29.575,-29.811C29.575,-33.391 28.653,-36.118 26.81,-37.991C24.998,-39.896 22.661,-40.849 19.801,-40.849C16.94,-40.849 14.588,-39.896 12.745,-37.991C10.869,-36.118 9.932,-33.391 9.932,-29.811L9.932,0.64L0,0.64L0,-50.441Z" style="fill:white;fill-rule:nonzero;"/>
            </g>
        </g>
        <g transform="matrix(4.16667,0,0,4.16667,0,0)">
            <g transform="matrix(1,0,0,1,1508.97,893.739)">
                <path d="M0,-9.161C-0.128,-13.15 -1.162,-16.167 -3.104,-18.211C-5.017,-20.156 -7.469,-21.129 -10.462,-21.129C-13.456,-21.129 -15.908,-20.156 -17.818,-18.211C-19.698,-16.167 -20.733,-13.15 -20.924,-9.161L0,-9.161ZM-20.924,-0.706C-20.924,3.399 -19.779,6.517 -17.489,8.651C-15.359,10.818 -12.562,11.901 -9.096,11.901C-5.057,11.901 -1.448,10.243 1.731,6.927L8.934,13.278C3.882,18.853 -2.059,21.608 -8.888,21.542C-11.493,21.542 -14.035,21.149 -16.513,20.36C-17.752,19.935 -18.958,19.36 -20.133,18.639C-21.373,18.016 -22.532,17.244 -23.612,16.325C-25.709,14.423 -27.408,11.766 -28.711,8.354C-30.141,5.073 -30.855,0.808 -30.855,-4.441C-30.855,-9.493 -30.236,-13.693 -28.996,-17.039C-27.759,-20.451 -26.17,-23.141 -24.232,-25.11C-22.263,-27.11 -20.056,-28.555 -17.609,-29.44C-15.195,-30.326 -12.813,-30.769 -10.462,-30.769C-4.808,-30.703 -0.027,-28.784 3.88,-25.01C7.851,-21.171 9.867,-15.888 9.932,-9.161L9.932,-0.706L-20.924,-0.706Z" style="fill:white;fill-rule:nonzero;"/>
            </g>
        </g>
        <g transform="matrix(4.16667,0,0,4.16667,0,0)">
            <g transform="matrix(1,0,0,1,421.176,153.618)">
                <path d="M0,241.134C24.964,237.871 63.06,229.753 65.5,227.729C225.947,95.806 46.689,300.267 222.912,156.026C298.099,94.491 271.213,120.441 330.283,170.999C351.161,188.906 373.753,141.736 352.268,104.026C351.642,102.938 396.447,49.319 397.085,48.889C396.542,44.792 414.499,137.411 413.564,73.271C413.557,72.815 426.507,28.2 434.719,27.669C452.494,26.531 427.22,10.622 457.755,-8.473C465.101,-13.051 475.243,-36.32 477.04,-40.873C477.343,-40.417 523.754,1.189 530.798,9.738C538.455,18.994 579.157,28.454 577.651,60.979C577.569,62.775 592.644,95.25 591.682,112.525C590.867,127.319 631.872,144.949 646.895,182.128C666.141,229.777 641.697,136.703 661.388,166.699C677.404,191.157 688.709,182.304 715.575,222.013C718.547,226.364 725.951,236.631 730.605,241.134L734.494,241.134C734.183,238.959 732.862,234.938 730.118,228.437C725.66,217.891 720.861,178.764 715.025,175.172C705.003,169.026 666.395,143.936 666.521,135.843C667.148,97.045 716.998,163.513 703.827,136.121C678.586,83.641 689.658,117.734 675.614,110.02C682.006,101.951 677.669,96.742 679.459,91.835C689.107,88.622 690.764,93.276 668.4,71.981C644.624,49.37 675.582,39 662.645,10.495C657.113,-1.669 677.378,-0.507 691.055,10.598C698.074,16.314 749.701,39.026 783.535,52.987C810.363,84.323 842.098,105.241 878.727,115.736C850.786,100.08 827.865,82.629 809.965,63.357C811.248,63.787 812.178,64.039 812.678,64.14C852.304,70.641 842.466,77.899 866.031,91.076C881.162,93.125 912.676,130.785 955.742,141.686C978.524,147.478 1002.05,188.349 1026.61,205.876C1073.15,239.035 1041.39,222.039 1092.28,236.885C1097.28,238.351 1101.53,239.768 1105.26,241.134L1123.12,241.134C1095.58,231.7 1078.36,208.102 1058.71,201.299C1019.99,187.945 1000.29,159.087 975.254,130.785C948.813,100.889 911.278,104.127 897.552,87.51C888.123,76.078 833.013,46.764 817.901,41.807C817.521,41.454 816.541,41.25 815.915,40.821C813.854,39.43 812.854,39.43 811.356,38.596C807.904,36.622 806.873,38.646 803.149,38.57C801.745,38.57 797.029,35.585 796.882,35.181C796.472,34.953 794.638,34.194 794.386,33.992C792.039,32.02 785.862,27.644 782.953,27.34C780.886,27.138 777.218,24.66 775.714,24.179C771.698,22.863 770.49,19.854 764.743,18.867C760.24,18.108 754.449,16.617 750.523,14.239C750.574,13.759 702.715,0.379 700.116,-0.303C699.642,-0.406 698.548,-0.86 697.137,-1.492C687.116,-12.748 670.859,-15.049 658.251,-22.131C652.44,-25.368 629.437,-13.101 621.318,-7.841C617.056,-5.058 614.773,-5.109 611.992,-2.757C610.285,-1.316 598.075,4.072 596.101,2.351C594.382,0.835 595.513,1.366 593.781,0.987C586.649,-0.582 588.192,3.49 584.739,3.97C578.594,4.805 581.206,5.716 578.081,6.803C572.909,8.65 576.109,9.94 570.678,9.839C566.504,3.566 554.699,1.82 549.166,-6.449C547.946,-8.296 537.602,-17.527 534.295,-17.604C530.121,-17.654 518.246,-29.895 511.582,-32.096C511.525,-32.121 503.761,-37.584 503.344,-37.938C503.287,-37.989 497.431,-40.568 495.876,-41.985C493.777,-43.907 486.234,-46.993 480.371,-48.587C477.805,-50.079 475.219,-51.342 472.778,-51.925C463.996,-54.075 463.079,-59.133 456.749,-56.351C443.996,-50.811 446.841,-53.164 433.17,-44.236C431.881,-44.413 424.748,-42.996 424.053,-42.314C420.398,-38.798 417.711,-34.675 413.639,-34.752C406.33,-34.878 408.657,-33.284 400.367,-28.959C393.361,-25.241 391.964,-22.535 384.3,-19.348C380.898,-17.907 372.856,-10.344 369.46,-10.699C367.418,-9.46 364.016,-12.267 360.013,-6.096C359.287,-4.983 354.771,-5.109 350.573,0.151C350.402,0.379 346.103,2.478 344.927,3.693C337.687,11.103 341.589,6.551 338.319,8.396C333.716,11.028 328.848,13.91 323.946,15.833C314.223,19.576 314.64,22.383 309.961,25.14C303.758,28.807 303.359,30.957 295.417,33.714C291.138,35.232 277.074,46.284 272.433,47.119C267.963,47.878 251.524,63.306 245.067,66.114C244.562,66.366 243.007,67.529 242.564,67.934C233.06,69.073 229.847,75.572 221.704,79.467C217.986,81.237 217.165,83.54 212.574,84.804C206.054,86.549 196.614,96.185 193.902,97.095C188.413,98.992 179.51,107.314 174.458,106.833C174.382,106.807 159.276,115.306 158.859,115.913C158.443,116.495 157.905,116.697 157.93,117.254C152.365,121.604 155.97,113.966 145.322,126.587C138.505,134.654 120.827,140.067 109.572,152.561C107.068,155.343 106.006,148.641 93.619,167.104C82.623,183.469 72.67,181.369 58.799,192.446C48.422,200.717 41.454,197.151 25.811,209.646C15.087,218.194 3.27,225.529 -8.561,231.826C-13.158,234.304 -16.889,239.616 -21.504,241.134L0,241.134Z" style="fill:white;"/>
            </g>
        </g>
        <g transform="matrix(4.16667,0,0,4.16667,0,0)">
            <g transform="matrix(1,0,0,1,1701.4,752.565)">
                <path d="M0,-5.674C-500.782,7.623 -1002.55,7.623 -1503.39,-5.674C-1002.4,-13.297 -501.013,-13.297 0,-5.674" style="fill:white;"/>
            </g>
        </g>
        <g transform="matrix(4.16667,0,0,4.16667,0,0)">
            <g transform="matrix(1,0,0,1,1633.46,846.769)">
                <path d="M0,72.058C-29.156,53.754 -52.48,29.704 -69.885,0C-43.228,20.745 -19.921,44.777 0,72.058" style="fill:white;"/>
            </g>
        </g>
        <g transform="matrix(4.16667,0,0,4.16667,0,0)">
            <g transform="matrix(1,0,0,1,1556.2,846.769)">
                <path d="M0,72.058C19.921,44.777 43.228,20.745 69.885,0C52.48,29.704 29.156,53.754 0,72.058" style="fill:white;"/>
            </g>
        </g>
        <g transform="matrix(4.16667,0,0,4.16667,0,0)">
            <g transform="matrix(1,0,0,1,398.784,846.769)">
                <path d="M0,72.058C-29.156,53.754 -52.48,29.704 -69.885,0C-43.228,20.745 -19.921,44.777 0,72.058" style="fill:white;"/>
            </g>
        </g>
        <g transform="matrix(4.16667,0,0,4.16667,0,0)">
            <g transform="matrix(1,0,0,1,321.519,846.769)">
                <path d="M0,72.058C19.921,44.777 43.228,20.745 69.885,0C52.48,29.704 29.156,53.754 0,72.058" style="fill:white;"/>
            </g>
        </g>
    </g>
</svg>
